<svg xmlns="http://www.w3.org/2000/svg" width="1200" height="630" viewBox="0 0 1200 630" role="img" aria-labelledby="t d"><title id="t">LOOP Cosmic Relay</title><desc id="d">Joc cosmic accesibil creat de LaurAi</desc><defs><linearGradient id="b" x2="0" y2="1"><stop stop-color="#312e81"/><stop offset=".55" stop-color="#0f172a"/><stop offset="1" stop-color="#020617"/></linearGradient><linearGradient id="l"><stop stop-color="#67e8f9"/><stop offset=".5" stop-color="#c084fc"/><stop offset="1" stop-color="#fb7185"/></linearGradient><filter id="g"><feGaussianBlur stdDeviation="9"/></filter></defs><rect width="1200" height="630" fill="url(#b)"/><g fill="#fff" opacity=".55"><circle cx="90" cy="100" r="2"/><circle cx="1060" cy="95" r="3"/><circle cx="1030" cy="510" r="2"/><circle cx="155" cy="515" r="3"/></g><path d="M250 330C340 150 510 170 600 315c90 145 260 165 350-15M250 300c90 180 260 160 350 15 90-145 260-165 350 15" fill="none" stroke="url(#l)" stroke-width="16" stroke-linecap="round" opacity=".25" filter="url(#g)"/><path d="M250 330C340 150 510 170 600 315c90 145 260 165 350-15M250 300c90 180 260 160 350 15 90-145 260-165 350 15" fill="none" stroke="url(#l)" stroke-width="5" stroke-linecap="round"/><text x="600" y="295" text-anchor="middle" fill="#f8fafc" font-family="Arial,sans-serif" font-size="132" font-weight="800" letter-spacing="30">LOOP</text><text x="600" y="375" text-anchor="middle" fill="#cbd5e1" font-family="Arial,sans-serif" font-size="28" letter-spacing="12">COSMIC RELAY</text><text x="600" y="550" text-anchor="middle" fill="#a5f3fc" font-family="Arial,sans-serif" font-size="23">9 MODURI · O SINGURĂ ACȚIUNE · ACCESIBIL</text></svg>
